<svg xmlns="http://www.w3.org/2000/svg" viewBox="0 0 1600 900"><defs><linearGradient id="g" x2="1" y2="1"><stop stop-color="#08080a"/><stop offset=".55" stop-color="#17171c"/><stop offset="1" stop-color="#5b0b17"/></linearGradient><radialGradient id="r"><stop stop-color="#db1d35" stop-opacity=".4"/><stop offset="1" stop-color="#db1d35" stop-opacity="0"/></radialGradient></defs><rect width="1600" height="900" fill="url(#g)"/><circle cx="1250" cy="180" r="520" fill="url(#r)"/><g fill="#ffffff" opacity=".035"><rect x="0" y="400" width="65" height="500"/><rect x="100" y="345" width="65" height="500"/><rect x="200" y="290" width="65" height="500"/><rect x="300" y="235" width="65" height="500"/><rect x="400" y="180" width="65" height="500"/><rect x="500" y="400" width="65" height="500"/><rect x="600" y="345" width="65" height="500"/><rect x="700" y="290" width="65" height="500"/><rect x="800" y="235" width="65" height="500"/><rect x="900" y="180" width="65" height="500"/><rect x="1000" y="400" width="65" height="500"/><rect x="1100" y="345" width="65" height="500"/><rect x="1200" y="290" width="65" height="500"/><rect x="1300" y="235" width="65" height="500"/><rect x="1400" y="180" width="65" height="500"/><rect x="1500" y="400" width="65" height="500"/><rect x="1600" y="345" width="65" height="500"/><rect x="1700" y="290" width="65" height="500"/></g><path d="M0 760L340 560l180 90 310-300 240 210 240-130 290 210v260H0z" fill="#050506" opacity=".8"/><text x="90" y="790" fill="#fff" opacity=".8" font-family="Arial,sans-serif" font-size="54" font-weight="700" letter-spacing="14">BCSO</text><rect x="90" y="815" width="190" height="6" fill="#d11b2d"/></svg>
